# xmcd
#
# Track frame offsets:
#  150
#  83489
#  108962
#  154458
#  172782
#  179993
#  225571
#  237473
#  249445
#  289502
#
# Disc length: 4086 seconds
#
# Revision: 0
# Processed by: cddbd v1.5.1PL2 Copyright (c) Steve Scherf et al.
# Submitted via: Collectorz.com_Music_Collector 6.10
#
DISCID=7b0ff40a
DTITLE=Terje Rydal - Vossabrygg
DYEAR=2006
DGENRE=Jazz
TTITLE0=01 - Ghostdancing
TTITLE1=02 - Hidden Chapter
TTITLE2=03 - Waltz For Broken Hearts - Makes You Wonder
TTITLE3=04 - Incognito Traveller
TTITLE4=05 - Key Witness
TTITLE5=06 - That's More Like It
TTITLE6=07 - De Slagferdige
TTITLE7=08 - Jungeltelegrafen
TTITLE8=09 - You're Making It Personal
TTITLE9=10 - A Quiet World
EXTD=
EXTT0=
EXTT1=
EXTT2=
EXTT3=
EXTT4=
EXTT5=
EXTT6=
EXTT7=
EXTT8=
EXTT9=
PLAYORDER=
